HIERARCHY
ROOT character_B_root
{
	OFFSET 0.000000 0.000000 0.000000
	CHANNELS 6 Xposition Yposition Zposition Xrotation Yrotation Zrotation
	JOINT character_B_pelvis
	{
		OFFSET 0.000000 0.000000 0.000000
		CHANNELS 3 Xrotation Yrotation Zrotation
		JOINT character_B_spine
		{
			OFFSET -0.005949 0.551378 0.000000
			CHANNELS 3 Xrotation Yrotation Zrotation
			JOINT character_B_head
			{
				OFFSET -0.011221 0.241134 0.000000
				CHANNELS 3 Xrotation Yrotation Zrotation
				JOINT character_B_nose
				{
					OFFSET -0.004159 -0.142665 -0.000261
					CHANNELS 3 Xrotation Yrotation Zrotation
					End Site
					{
						OFFSET 0.000000 0.050000 0.000000
					}
				}
			}
			JOINT character_B_left_shoulder
			{
				OFFSET 0.093188 -0.066956 0.092540
				CHANNELS 3 Xrotation Yrotation Zrotation
				JOINT character_B_left_elbow
				{
					OFFSET 0.026481 -0.252143 -0.089385
					CHANNELS 3 Xrotation Yrotation Zrotation
					JOINT character_B_left_wrist
					{
						OFFSET -0.001396 -0.164778 -0.154831
						CHANNELS 3 Xrotation Yrotation Zrotation
						End Site
						{
							OFFSET 0.000000 0.050000 0.000000
						}
					}
				}
			}
			JOINT character_B_right_shoulder
			{
				OFFSET -0.052646 -0.054758 0.152841
				CHANNELS 3 Xrotation Yrotation Zrotation
				JOINT character_B_right_elbow
				{
					OFFSET -0.025750 -0.252567 -0.055740
					CHANNELS 3 Xrotation Yrotation Zrotation
					JOINT character_B_right_wrist
					{
						OFFSET 0.022565 -0.178373 -0.161123
						CHANNELS 3 Xrotation Yrotation Zrotation
						End Site
						{
							OFFSET 0.000000 0.050000 0.000000
						}
					}
				}
			}
		}
		JOINT character_B_left_hip
		{
			OFFSET 0.053047 -0.014449 0.105832
			CHANNELS 3 Xrotation Yrotation Zrotation
			JOINT character_B_left_knee
			{
				OFFSET 0.010852 -0.388560 0.128200
				CHANNELS 3 Xrotation Yrotation Zrotation
				JOINT character_B_left_ankle
				{
					OFFSET -0.005897 -0.374408 0.161260
					CHANNELS 3 Xrotation Yrotation Zrotation
					JOINT character_B_left_big_toe
					{
						OFFSET 0.012109 -0.098215 0.034452
						CHANNELS 3 Xrotation Yrotation Zrotation
						End Site
						{
							OFFSET 0.000000 0.050000 0.000000
						}
					}
					JOINT character_B_left_small_toe
					{
						OFFSET 0.041617 -0.095586 0.019459
						CHANNELS 3 Xrotation Yrotation Zrotation
						End Site
						{
							OFFSET 0.000000 0.050000 0.000000
						}
					}
					JOINT character_B_left_heel
					{
						OFFSET -0.014884 -0.052778 0.025198
						CHANNELS 3 Xrotation Yrotation Zrotation
						End Site
						{
							OFFSET 0.000000 0.050000 0.000000
						}
					}
				}
			}
		}
		JOINT character_B_right_hip
		{
			OFFSET -0.043381 -0.011457 0.270438
			CHANNELS 3 Xrotation Yrotation Zrotation
			JOINT character_B_right_knee
			{
				OFFSET 0.014721 -0.382947 0.164918
				CHANNELS 3 Xrotation Yrotation Zrotation
				JOINT character_B_right_ankle
				{
					OFFSET 0.029970 -0.363014 0.179744
					CHANNELS 3 Xrotation Yrotation Zrotation
					JOINT character_B_right_big_toe
					{
						OFFSET 0.007171 -0.100675 0.041990
						CHANNELS 3 Xrotation Yrotation Zrotation
						End Site
						{
							OFFSET 0.000000 0.050000 0.000000
						}
					}
					JOINT character_B_right_small_toe
					{
						OFFSET -0.022736 -0.093093 0.035638
						CHANNELS 3 Xrotation Yrotation Zrotation
						End Site
						{
							OFFSET 0.000000 0.050000 0.000000
						}
					}
					JOINT character_B_right_heel
					{
						OFFSET 0.012696 -0.052984 0.028899
						CHANNELS 3 Xrotation Yrotation Zrotation
						End Site
						{
							OFFSET 0.000000 0.050000 0.000000
						}
					}
				}
			}
		}
	}
}
MOTION
Frames: 5
Frame Time: 0.03333333
0.949813 -0.181007 -0.834608 0.000000 0.000000 0.000000 3.177456 -7.210444 26.535963 -5.646327 8.539819 -2.647945 8.075347 -1.820854 -45.884747 -0.000000 0.000000 0.000000 14.691699 -5.217166 -14.312690 -20.563888 15.704301 -17.281427 -0.000000 0.000000 -0.000000 -3.917798 -1.192790 -4.271411 13.259178 10.772410 -30.200656 0.000000 0.000000 -0.000000 6.577030 -2.638161 -43.118556 2.195305 14.841483 27.677850 128.398837 4.010578 -140.564665 0.000000 0.000000 -0.000000 0.000000 0.000000 -0.000000 0.000000 0.000000 -0.000000 -2.952817 6.879772 -31.428391 2.165745 7.345789 14.888943 10.076327 -2.947921 -39.139474 -0.000000 0.000000 0.000000 -0.000000 0.000000 0.000000 -0.000000 0.000000 0.000000
0.915570 -0.169798 -0.846779 0.000000 0.000000 0.000000 2.675110 -4.448796 23.337069 -1.625351 6.679087 -0.839540 2.293833 -2.414716 -44.258348 0.000000 0.000000 0.000000 10.448275 -8.747713 -4.433917 -19.093686 12.549572 -18.305237 -0.000000 0.000000 0.000000 2.016828 -5.429609 -7.184887 -0.242944 14.606571 -27.338797 0.000000 0.000000 0.000000 2.392073 -2.427780 -38.746051 3.541670 14.027164 27.301283 134.955021 1.417257 -144.106758 -0.000000 0.000000 0.000000 -0.000000 0.000000 0.000000 -0.000000 0.000000 0.000000 -5.567447 5.207888 -27.010674 3.547906 6.357764 12.889761 14.010351 -2.565020 -38.822182 -0.000000 0.000000 0.000000 -0.000000 0.000000 0.000000 -0.000000 0.000000 0.000000
0.892133 -0.161082 -0.830667 0.000000 0.000000 0.000000 2.217985 -1.909398 20.772123 8.131324 -1.599547 2.693554 -8.495213 4.030892 -45.108353 0.000000 0.000000 -0.000000 -0.108777 -4.615255 0.754038 -18.869549 9.734678 -18.296438 -0.000000 0.000000 0.000000 -1.035999 -2.274090 -7.845377 -8.933915 19.585237 -30.221300 0.000000 0.000000 -0.000000 -0.344162 -3.209858 -35.048488 5.101777 13.755332 26.912587 138.641325 -2.000471 -148.219595 0.000000 0.000000 -0.000000 0.000000 0.000000 -0.000000 0.000000 0.000000 -0.000000 -6.499427 2.992278 -23.576166 3.855170 5.599352 11.342304 18.581391 -1.726404 -38.822070 0.000000 0.000000 0.000000 0.000000 0.000000 0.000000 0.000000 0.000000 0.000000
0.862878 -0.155302 -0.838400 0.000000 0.000000 0.000000 1.698160 0.554196 18.399895 15.682249 -9.550506 6.074031 -16.126805 10.597276 -43.448011 -0.000000 0.000000 0.000000 -8.331769 0.748173 6.279819 -18.623413 5.646226 -16.236458 0.000000 0.000000 -0.000000 -4.747281 3.023254 -8.312073 -15.560202 22.501843 -30.205052 0.000000 0.000000 0.000000 -2.571054 -4.103091 -30.873910 5.667773 13.102715 26.475631 132.867765 2.700528 -151.113539 -0.000000 0.000000 0.000000 -0.000000 0.000000 0.000000 -0.000000 0.000000 0.000000 -6.015276 0.479410 -20.243073 1.782509 4.849359 10.458016 23.582886 -2.273056 -40.424615 0.000000 0.000000 -0.000000 0.000000 0.000000 -0.000000 0.000000 0.000000 -0.000000
0.824102 -0.153802 -0.877027 0.000000 0.000000 0.000000 1.583502 2.150001 15.872363 20.201881 -14.729829 8.311460 -20.619304 14.926151 -41.346927 0.000000 0.000000 0.000000 -12.303562 4.576310 11.725965 -20.230325 1.497129 -12.908900 0.000000 0.000000 0.000000 -7.934202 7.584393 -6.539286 -17.014814 24.489792 -31.470507 -0.000000 0.000000 -0.000000 -5.842425 -3.531506 -25.228204 6.620653 11.603133 24.588327 127.401161 8.388279 -154.093607 0.000000 0.000000 0.000000 0.000000 0.000000 0.000000 0.000000 0.000000 0.000000 -5.554976 -0.924261 -16.334947 -1.524023 3.712827 9.018941 25.488996 -4.170759 -40.650087 0.000000 0.000000 -0.000000 0.000000 0.000000 -0.000000 0.000000 0.000000 -0.000000
